<?xml version="1.0" encoding="UTF-8"?>
<svg version="1.1" xmlns="http://www.w3.org/2000/svg" width="1024" height="1024">
<path d="M0 0 C337.92 0 675.84 0 1024 0 C1024 337.92 1024 675.84 1024 1024 C686.08 1024 348.16 1024 0 1024 C0 686.08 0 348.16 0 0 Z " fill="#FEFEFE" transform="translate(0,0)"/>
<path d="M0 0 C1.49027962 -0.01467567 1.49027962 -0.01467567 3.01066589 -0.02964783 C6.31552781 -0.05968639 9.6203489 -0.08101367 12.92529297 -0.09985352 C14.05199276 -0.10642534 15.17869255 -0.11299717 16.33953476 -0.11976814 C22.3062591 -0.15240295 28.27296529 -0.17684057 34.23974609 -0.19628906 C39.18109147 -0.21409088 44.12186498 -0.24888807 49.06298828 -0.29882812 C55.02291619 -0.35900304 60.98231434 -0.38976219 66.94253159 -0.39946175 C69.21433542 -0.40802471 71.4861248 -0.4268633 73.75775528 -0.45620537 C76.94199485 -0.49511168 80.12417295 -0.49615466 83.30859375 -0.48828125 C84.24498184 -0.50828186 85.18136993 -0.52828247 86.14613342 -0.54888916 C91.97354966 -0.48432159 95.02351211 0.62203942 99.21926212 4.71920967 C100.74825706 6.4403804 102.00051743 8.08748813 103.06201172 10.13452148 C103.43874023 10.83915527 103.81546875 11.54378906 104.20361328 12.26977539 C104.58356445 13.01275879 104.96351563 13.75574219 105.35498047 14.52124023 C106.21894258 16.14075731 107.08487513 17.75922454 107.95263672 19.37670898 C108.38463379 20.18930176 108.81663086 21.00189453 109.26171875 21.83911133 C111.18180802 25.39160588 113.22799855 28.86376104 115.29248047 32.33374023 C116.12734722 33.74375953 116.96197421 35.15392082 117.79638672 36.56420898 C118.2348291 37.30461426 118.67327148 38.04501953 119.125 38.80786133 C130.03660661 57.28955946 140.72627071 75.90187424 151.43798828 94.49975586 C159.85599872 109.11297047 168.31250212 123.70267737 176.82177734 138.26293945 C178.52726015 141.18268343 180.23058924 144.10367183 181.93310547 147.02514648 C188.28759081 157.92868985 194.65776671 168.82288106 201.04248047 179.70874023 C214.88256014 203.30864996 228.63337311 226.95816585 242.26123047 250.68139648 C249.27130872 262.87371816 256.36809579 275.00890238 263.55737305 287.09643555 C268.78084429 295.89132112 273.9201296 304.73211591 279.0078125 313.60620117 C282.15034411 319.08363963 285.32302039 324.53925966 288.55810547 329.96264648 C289.20569824 331.05359619 289.85329102 332.1445459 290.52050781 333.26855469 C291.75267621 335.34072256 292.99218483 337.40854965 294.24023438 339.47119141 C294.79114746 340.40036377 295.34206055 341.32953613 295.90966797 342.28686523 C296.3954834 343.09542969 296.88129883 343.90399414 297.38183594 344.73706055 C298.70611435 347.55721088 299.08158495 350.14064431 299.54248047 353.20874023 C286.75541362 353.27829431 273.96839188 353.33157913 261.18117428 353.36417675 C255.24335478 353.37982309 249.30566485 353.40104282 243.36791992 353.43505859 C237.63614696 353.46768839 231.90449853 353.48560102 226.17263985 353.49337196 C223.98740237 353.49890893 221.8021716 353.50972128 219.61698723 353.5259304 C216.5528587 353.54775245 213.48924274 353.55070512 210.42504883 353.54931641 C209.07421455 353.56549515 209.07421455 353.56549515 207.6960907 353.58200073 C201.60196345 353.55217469 196.35226543 352.87617592 191.73535156 348.49316406 C191.30818848 347.86949951 190.88102539 347.24583496 190.44091797 346.60327148 C189.95333008 345.89509277 189.46574219 345.18691406 188.96337891 344.45727539 C186.57026901 340.67024067 184.33928497 336.81384873 182.16748047 332.89624023 C177.46375513 324.5376387 172.63918801 316.26078489 167.72998047 308.02124023 C160.51886313 295.90379133 153.44718407 283.70914365 146.42333984 271.48217773 C130.63049073 243.90315907 130.63049073 243.90315907 114.29248047 216.64624023 C104.23362493 200.27734871 94.73816189 183.56803041 85.14892578 166.92163086 C80.39982345 158.68133638 75.6139458 150.46307633 70.81420898 142.25219727 C66.50762778 134.87900088 62.23892758 127.48453358 57.97998047 120.08374023 C52.86300244 111.19469831 47.68494641 102.34521221 42.44970703 93.52539062 C38.32015758 86.55599143 34.26631465 79.54496521 30.22998047 72.52124023 C25.06879007 63.54247512 19.83710666 54.60945006 14.54248047 45.70874023 C9.37542304 37.01491071 4.23496232 28.30676404 -0.83447266 19.55566406 C-1.80824104 17.87562776 -2.78518408 16.1974328 -3.76220703 14.51928711 C-4.35001953 13.50157227 -4.93783203 12.48385742 -5.54345703 11.43530273 C-6.05956543 10.54407715 -6.57567383 9.65285156 -7.10742188 8.73461914 C-8.42163538 6.27587539 -9.47633661 3.81605079 -10.45751953 1.20874023 C-8.27039378 -0.97838552 -3.04522075 0.01872012 0 0 Z " fill="#6018F3" transform="translate(465.45751953125,189.791259765625)"/>
<path d="M0 0 C1.93179408 -0.00298657 1.93179408 -0.00298657 3.9026143 -0.00603348 C5.34011998 -0.00318023 6.77762548 -0.00023463 8.21513081 0.00279331 C9.73564669 0.0023575 11.2561625 0.0014824 12.77667791 0.00020415 C16.96568856 -0.00203882 21.1546738 0.00197778 25.34368122 0.00698221 C29.85696309 0.01128934 34.37024345 0.0098401 38.8835268 0.00907993 C46.70667264 0.00855487 54.52981016 0.01169987 62.35295391 0.01731777 C73.66399147 0.02543509 84.97502499 0.02804823 96.28606514 0.02930576 C114.63622737 0.03149592 132.98638517 0.03815501 151.33654499 0.04760838 C169.16499528 0.05678344 186.99344438 0.06386381 204.82189655 0.06811619 C206.46953586 0.06851027 206.46953586 0.06851027 208.1504608 0.06891232 C213.66078711 0.07021733 219.17111343 0.07148105 224.68143976 0.07272422 C270.41551762 0.08309569 316.14959065 0.10071302 361.88366413 0.12304783 C361.31400736 4.53110233 360.84216026 7.86308698 358.47741413 11.65429783 C357.97983601 12.4664072 357.48225788 13.27851658 356.96960163 14.11523533 C356.44624226 14.94281345 355.92288288 15.77039158 355.38366413 16.62304783 C354.37290596 18.25825345 353.36249987 19.89367675 352.35241413 21.52929783 C351.80649616 22.4059409 351.26057819 23.28258396 350.69811726 24.18579197 C345.40603156 32.75267612 340.28749267 41.42677576 335.16491413 50.09570408 C334.77170979 50.76076969 334.37850544 51.4258353 333.97338581 52.11105442 C331.57750554 56.16376014 331.57750554 56.16376014 329.18591022 60.21899509 C324.90485044 67.4842208 320.58255409 74.72454015 316.10241413 81.86914158 C315.4108321 82.97829929 314.71925007 84.08745701 314.00671101 85.23022556 C311.14630909 89.12775342 308.48885973 91.58798263 303.88366413 93.12304783 C301.83615811 93.2156864 299.78569405 93.24678879 297.73609352 93.24609566 C296.44126401 93.24808671 295.1464345 93.25007775 293.81236774 93.25212914 C292.36700155 93.24927589 290.92163555 93.24633029 289.47626972 93.24330235 C287.94750424 93.24373816 286.41873883 93.24461325 284.88997382 93.24589151 C280.67816007 93.24813452 276.4663716 93.24411782 272.25456107 93.23911345 C267.71673909 93.23480637 263.17891861 93.23625556 258.64109516 93.23701572 C250.77538749 93.23754079 242.9096881 93.23439575 235.04398251 93.22877789 C223.67140677 93.22066061 212.29883505 93.21804743 200.92625674 93.21678989 C182.47626592 93.21459973 164.02627951 93.20794062 145.57629108 93.19848728 C127.65083558 93.18931224 109.72538127 93.18223185 91.7999239 93.17797947 C90.14332361 93.17758538 90.14332361 93.17758538 88.45325664 93.17718334 C82.91296219 93.17587833 77.37266773 93.17461461 71.83237326 93.17337143 C25.84946716 93.16299994 -20.13343413 93.1453826 -66.11633587 93.12304783 C-65.33434895 88.52316251 -63.57364632 85.17301296 -61.11633587 81.25976658 C-60.29160353 79.91682013 -59.46739948 78.57354913 -58.64367962 77.22998142 C-58.22199505 76.54691929 -57.80031048 75.86385715 -57.36584759 75.16009617 C-55.43320341 72.00935372 -53.55606192 68.82654142 -51.67883587 65.64257908 C-50.92995811 64.37681971 -50.1808503 63.11119643 -49.43152142 61.84570408 C-49.05393688 61.20777927 -48.67635235 60.56985447 -48.28732586 59.91259861 C-41.86096348 49.06259573 -35.41400213 38.22455905 -28.89441204 27.43026829 C-28.17776838 26.24270055 -27.46255451 25.0542686 -26.74890423 23.86489964 C-12.41778939 -0.0042223 -12.41778939 -0.0042223 0 0 Z " fill="#4E63E8" transform="translate(454.11633586883545,671.8769521713257)"/>
<path d="M0 0 C3.51127579 1.17042526 3.68501845 1.6960831 5.390625 4.8125 C5.84477783 5.6274292 6.29893066 6.4423584 6.7668457 7.28198242 C7.25628662 8.17892822 7.74572754 9.07587402 8.25 10 C9.32948607 11.93501583 10.41163118 13.86855006 11.49609375 15.80078125 C12.0669873 16.81865723 12.63788086 17.8365332 13.22607422 18.88525391 C16.16271527 24.04155262 19.23920548 29.11187107 22.3125 34.1875 C28.25560864 44.02833186 34.04576932 53.94869699 39.76538086 63.92089844 C43.899993 71.12237803 48.12070245 78.2605465 52.4609375 85.33984375 C55.42550579 90.46388183 55.72850405 95.20650876 55 101 C53.73464994 104.40949426 51.92891646 107.36388829 50 110.4375 C49.46528076 111.33017578 48.93056152 112.22285156 48.37963867 113.14257812 C47.21551881 115.08327602 46.04222125 117.01849179 44.86083984 118.94873047 C42.29613642 123.1541442 39.79843232 127.39801854 37.29589844 131.640625 C35.62189699 134.47595981 33.94200329 137.30767598 32.25857544 140.13742065 C27.5521989 148.04931864 22.89719782 155.99074095 18.25 163.9375 C13.08266582 172.77141968 7.87357288 181.57753045 2.58789062 190.34130859 C-2.12173921 198.1668575 -6.73265891 206.04958893 -11.34423828 213.93310547 C-17.18441023 223.91623873 -23.06552429 233.87397636 -28.97070312 243.81884766 C-33.92783518 252.17393501 -38.84456635 260.55199596 -43.75 268.9375 C-48.94322091 277.81356688 -54.17238683 286.66585556 -59.47802734 295.4753418 C-68.70880809 310.80832908 -77.81425508 326.21699495 -86.8125 341.6875 C-92.12727364 350.81535098 -97.46900951 359.92711964 -102.84432983 369.0194397 C-103.69076188 370.45237361 -104.5358589 371.88609705 -105.37954712 373.32064819 C-106.56438772 375.33449651 -107.75422207 377.34531222 -108.9453125 379.35546875 C-109.47104607 380.25235413 -109.47104607 380.25235413 -110.00740051 381.1673584 C-112.09640246 384.67813848 -114.37698491 387.86917447 -117 391 C-121.56475044 390.48468657 -121.56475044 390.48468657 -123.45947266 388.37475586 C-124.05574463 387.30559937 -124.05574463 387.30559937 -124.6640625 386.21484375 C-125.37308716 384.9777063 -125.37308716 384.9777063 -126.09643555 383.71557617 C-126.60086182 382.79881104 -127.10528809 381.8820459 -127.625 380.9375 C-128.76817015 378.93151539 -129.91279278 376.92635807 -131.05859375 374.921875 C-131.68233887 373.82037109 -132.30608398 372.71886719 -132.94873047 371.58398438 C-136.35705914 365.59803825 -139.90999812 359.69640874 -143.43920898 353.78128052 C-145.49696229 350.32977464 -147.54714185 346.87377841 -149.59765625 343.41796875 C-149.98611725 342.76348251 -150.37457825 342.10899628 -150.77481079 341.43467712 C-151.84999061 339.62318734 -152.9250204 337.81160861 -154 336 C-154.55413574 335.06623535 -155.10827148 334.1324707 -155.67919922 333.17041016 C-158.10267066 329.08259734 -160.50814824 324.98532732 -162.89404297 320.87548828 C-164.11425898 318.80623897 -165.37106406 316.76141673 -166.62890625 314.71484375 C-167.48231933 313.28939074 -168.33520161 311.86361978 -169.1875 310.4375 C-169.58727051 309.80585937 -169.98704102 309.17421875 -170.39892578 308.5234375 C-172.6175813 304.74921898 -173.60837242 301.66358519 -172.77270508 297.30200195 C-170.98783707 291.98461794 -168.04689656 287.21080705 -165.25 282.375 C-164.56554017 281.17070401 -163.88204101 279.96586156 -163.19946289 278.76049805 C-157.4717343 268.68105738 -151.56870618 258.70351965 -145.63134766 248.74658203 C-133.94338198 229.06839977 -122.58701702 209.19085676 -111.17578125 189.3515625 C-104.81639918 178.30232976 -98.41360516 167.28284822 -91.90917969 156.31835938 C-85.81881819 146.03554574 -79.86567718 135.67406661 -73.90722656 125.31445312 C-70.77635076 119.87349435 -67.63783458 114.43694752 -64.5 109 C-63.24996242 106.83335502 -61.99996244 104.66668834 -60.75 102.5 C-53.25 89.5 -53.25 89.5 -51.37426758 86.2487793 C-50.1266526 84.08621417 -48.87909384 81.92361661 -47.6315918 79.76098633 C-44.47056551 74.28129629 -41.30850691 68.80220642 -38.14453125 63.32421875 C-36.86711517 61.11202093 -35.58977095 58.89978162 -34.3125 56.6875 C-33.37494873 55.06376465 -33.37494873 55.06376465 -32.41845703 53.40722656 C-29.04357745 47.55767156 -25.6841092 41.69979219 -22.34399414 35.83032227 C-17.5687033 27.44241319 -12.75061955 19.08002776 -7.875 10.75 C-7.31796387 9.7899707 -6.76092773 8.82994141 -6.18701172 7.84082031 C-5.40994873 6.51969238 -5.40994873 6.51969238 -4.6171875 5.171875 C-4.15940918 4.3890918 -3.70163086 3.60630859 -3.22998047 2.79980469 C-2 1 -2 1 0 0 Z " fill="#04D2EB" transform="translate(369,335)"/>
<path d="M0 0 C0.92968094 -0.00137466 1.85936188 -0.00274933 2.81721497 -0.00416565 C4.34390808 0.00122726 4.34390808 0.00122726 5.90144348 0.00672913 C6.97477432 0.0065831 8.04810516 0.00643707 9.15396118 0.00628662 C12.70888781 0.00698442 16.26376232 0.01477065 19.81867981 0.02259827 C22.28061901 0.02446292 24.74255859 0.0258866 27.20449829 0.02688599 C33.69001792 0.03070745 40.17551521 0.04053461 46.661026 0.05158997 C53.27672524 0.06181203 59.89242808 0.06638532 66.50813293 0.07142639 C79.49316851 0.08215718 92.4781886 0.09903746 105.46321106 0.12025452 C106.60670344 4.52434717 106.11471242 6.52944067 103.85920715 10.5372467 C103.43977844 11.24526428 103.02034973 11.95328186 102.58821106 12.68275452 C102.15202454 13.44362366 101.71583801 14.2044928 101.26643372 14.98841858 C96.22916993 23.69332827 90.96980451 32.27548409 85.70588684 40.84510803 C82.21014635 46.54267012 78.78027758 52.26404865 75.48664856 58.08119202 C71.03648668 65.94065369 66.32124243 73.63122437 61.58869934 81.32289124 C52.38293877 94.28251107 52.38293877 94.28251107 50.46321106 109.12025452 C55.00335194 120.67697675 62.20318754 131.2935994 68.55207825 141.9098053 C71.68667011 147.17550317 74.77851368 152.46613529 77.87251282 157.75575256 C82.87384545 166.30531659 87.8849066 174.84898841 92.92732239 183.37440491 C94.01446632 185.21262579 95.10029332 187.05162631 96.18464661 188.89149475 C98.37050215 192.59861849 100.56310016 196.2988097 102.81867981 199.96400452 C103.46450012 201.02619202 104.11032043 202.08837952 104.77571106 203.18275452 C105.30809387 204.03998108 105.84047668 204.89720764 106.38899231 205.78041077 C107.60923375 208.43831848 107.75899035 210.2276333 107.46321106 213.12025452 C105.9126978 214.67076778 104.44865323 214.25253104 102.28996277 214.26069641 C101.38997559 214.26640656 100.4899884 214.2721167 99.56272888 214.27799988 C98.56744171 214.27911774 97.57215454 214.2802356 96.54670715 214.28138733 C94.98327576 214.28883469 94.98327576 214.28883469 93.38825989 214.2964325 C89.92104951 214.31110236 86.45388494 214.31786546 82.98664856 214.32337952 C80.58346047 214.32912868 78.1802724 214.33488644 75.77708435 214.34065247 C70.72795904 214.35117733 65.67884971 214.35700971 60.62971497 214.36048889 C54.16327503 214.36596514 47.69704656 214.3899685 41.23067284 214.41846085 C36.26179899 214.43710006 31.29297583 214.4422936 26.32406998 214.44382477 C23.94067356 214.44685083 21.55727802 214.45487777 19.17391586 214.46800995 C15.83447565 214.48509062 12.4955485 214.48318454 9.15608215 214.47669983 C8.17294037 214.48591461 7.18979858 214.49512939 6.17686462 214.50462341 C-0.80939897 214.46218988 -5.92968649 213.70736385 -11.08366394 208.59291077 C-14.4035552 204.18933142 -17.05990142 199.33990363 -19.78678894 194.55775452 C-21.03500477 192.39341392 -22.28372462 190.22936394 -23.53288269 188.06556702 C-24.51297302 186.36255432 -24.51297302 186.36255432 -25.51286316 184.62513733 C-28.57497649 179.31337238 -31.68231934 174.02809662 -34.7872467 168.74128723 C-36.57221965 165.70168876 -38.35513752 162.66088514 -40.13835144 159.62025452 C-40.49616196 159.01027618 -40.85397247 158.40029785 -41.22262573 157.77183533 C-43.87887221 153.24333892 -46.53244066 148.71327886 -49.18522644 144.18275452 C-50.3297488 142.22857901 -51.47432007 140.27443216 -52.61891174 138.32029724 C-53.34323394 137.08344426 -54.06738179 135.84648915 -54.79133606 134.60942078 C-58.60987439 128.08467603 -62.44525632 121.57527548 -66.40129089 115.13270569 C-69.16196584 110.23994207 -69.55120299 105.57186745 -68.53678894 100.12025452 C-66.43036362 95.37385022 -63.79355449 91.02247848 -61.0690155 86.60804749 C-59.38684304 83.87679551 -57.73722757 81.12750693 -56.09147644 78.37416077 C-53.55420982 74.13081846 -51.00733815 69.89346277 -48.45475769 65.65931702 C-44.63403342 59.30377121 -40.88773696 52.90671249 -37.16178894 46.49525452 C-32.38306626 38.27788472 -27.59800669 30.06756454 -22.65055847 21.95033264 C-21.84896285 20.63319964 -21.05088138 19.31392562 -20.25505066 17.99330139 C-18.91971337 15.7804844 -17.57334142 13.57473116 -16.22428894 11.37025452 C-15.81533386 10.68962952 -15.40637878 10.00900452 -14.98503113 9.30775452 C-11.04278766 2.92229349 -7.6112256 -0.00867871 0 0 Z " fill="#2D3F75" transform="translate(455.5367889404297,437.87974548339844)"/>
<path d="M0 0 C13.79559293 -0.07023809 27.59115792 -0.12286063 41.38689327 -0.15543652 C47.79322969 -0.17107351 54.19944574 -0.19227618 60.60571289 -0.22631836 C66.79136395 -0.25898145 72.97689942 -0.2768678 79.16263008 -0.28463173 C81.51926047 -0.29016272 83.87588473 -0.30096337 86.23246574 -0.31719017 C89.54045011 -0.33905639 92.84796052 -0.34196303 96.15600586 -0.34057617 C97.1241774 -0.351362 98.09234894 -0.36214783 99.08985901 -0.3732605 C107.27832543 -0.33626074 115.02169006 0.98540086 121 7 C122.921875 9.76708984 122.921875 9.76708984 124.75 12.9609375 C125.08484909 13.53903671 125.41969818 14.11713593 125.76469421 14.7127533 C126.85236918 16.59501734 127.92605399 18.48487526 129 20.375 C129.75910007 21.69357047 130.51928466 23.01151713 131.28051758 24.32885742 C132.81023375 26.97758728 134.33563863 29.62872355 135.85791016 32.28173828 C138.75389347 37.31998667 141.71857598 42.31699086 144.6875 47.3125 C150.94995133 57.88689977 157.16933363 68.48737321 163.31542969 79.12988281 C164.51936203 81.18110436 165.75260352 83.21523656 167.00488281 85.23730469 C167.65553711 86.30110352 168.30619141 87.36490234 168.9765625 88.4609375 C169.57807129 89.42563965 170.17958008 90.3903418 170.79931641 91.38427734 C172 94 172 94 171.75146484 96.28369141 C171 98 171 98 170 99 C168.57383207 99.10203361 167.14266364 99.13518156 165.71286011 99.14044189 C164.78763046 99.14615204 163.86240082 99.15186218 162.90913391 99.15774536 C161.88579453 99.15886322 160.86245514 99.15998108 159.80810547 99.16113281 C158.200783 99.16858017 158.200783 99.16858017 156.56098938 99.17617798 C152.99638234 99.19084813 149.43181984 99.19761094 145.8671875 99.203125 C143.39673867 99.20887407 140.92628986 99.21463183 138.45584106 99.22039795 C133.26548046 99.23092284 128.07513541 99.23675523 122.88476562 99.24023438 C116.2367356 99.24492567 109.58889005 99.2697155 102.94091606 99.29820633 C97.83307296 99.31684327 92.72527917 99.32203896 87.61740494 99.32357025 C85.16702276 99.32659675 82.71664144 99.33462515 80.26629257 99.34775543 C76.83345765 99.36483157 73.40112202 99.36293112 69.96826172 99.35644531 C68.95706772 99.3656601 67.94587372 99.37487488 66.90403748 99.3843689 C60.54066132 99.34675422 55.08813913 98.88720873 50.22143555 94.3371582 C49.801604 93.72702881 49.38177246 93.11689941 48.94921875 92.48828125 C48.46243652 91.7813916 47.9756543 91.07450195 47.47412109 90.34619141 C44.76907108 86.04087 42.2667263 81.63967496 39.8125 77.1875 C38.66096941 75.12454589 37.50861429 73.06205182 36.35546875 71 C35.503479 69.47246094 35.503479 69.47246094 34.63427734 67.9140625 C32.33605173 63.81612092 29.9872186 59.74879608 27.625 55.6875 C26.73436303 54.15365278 25.8437384 52.6197984 24.953125 51.0859375 C24.48712891 50.28381836 24.02113281 49.48169922 23.54101562 48.65527344 C19.19646782 41.16932574 14.86874881 33.67376642 10.55859375 26.16796875 C8.39404838 22.40125522 6.20491398 18.65272687 3.97265625 14.92578125 C3.53711426 14.18674561 3.10157227 13.44770996 2.65283203 12.6862793 C1.86843507 11.35589289 1.0720229 10.03248409 0.26123047 8.71801758 C-0.75390625 6.9765625 -0.75390625 6.9765625 -2 4 C-1.07788086 1.81396484 -1.07788086 1.81396484 0 0 Z " fill="#6018F3" transform="translate(390,320)"/>
<path d="M0 0 C1.32 0 2.64 0 4 0 C4.54527344 0.98097656 5.09054687 1.96195312 5.65234375 2.97265625 C9.74856459 10.31443623 13.91580585 17.59827745 18.27124023 24.78930664 C21.91476888 30.82048297 25.45771364 36.90894373 29 43 C32.79516277 49.52348486 36.59527491 56.04139877 40.5 62.5 C44.56346933 69.23396907 48.53658273 76.01921079 52.5 82.8125 C53.12455078 83.88242187 53.74910156 84.95234375 54.39257812 86.0546875 C60.16266531 95.95904535 60.16266531 95.95904535 60.25 100.1875 C60.27578125 100.92355469 60.3015625 101.65960937 60.328125 102.41796875 C59.56949296 108.3876804 56.1396038 113.72852202 53.078125 118.8046875 C52.70143173 119.43710861 52.32473846 120.06952972 51.93663025 120.72111511 C50.71189977 122.77491944 49.48106695 124.82498868 48.25 126.875 C47.3906813 128.31286018 46.53171728 129.7509324 45.6730957 131.18920898 C43.52045456 134.79273889 41.36273597 138.39319756 39.20343018 141.99273682 C37.43334309 144.94515626 35.66800971 147.90040315 33.90234375 150.85546875 C31.47191041 154.92127513 29.03086975 158.98041277 26.58203125 163.03515625 C24.06344141 167.20971025 21.590134 171.40792803 19.13671875 175.62109375 C17.88287256 177.74743125 16.62896839 179.87373456 15.375 182 C14.80676514 182.99265869 14.23853027 183.98531738 13.65307617 185.00805664 C12.84640503 186.3653186 12.84640503 186.3653186 12.0234375 187.75 C11.32613525 188.94882812 11.32613525 188.94882812 10.61474609 190.171875 C8.55670565 192.50187301 7.03360245 192.69234541 4 193 C-4.21293767 179.4262059 -12.31617836 165.80350599 -20.21533203 152.04443359 C-25.7551681 142.40058768 -31.37393602 132.80449624 -37.01513672 123.21972656 C-40.51338518 117.26905399 -43.99591747 111.30950168 -47.44140625 105.328125 C-48.09955322 104.18762695 -48.7577002 103.04712891 -49.43579102 101.87207031 C-51.9377466 97.27818777 -53.00731913 93.16594806 -52 88 C-49.93734414 83.44578064 -47.31349017 79.24495637 -44.6875 75 C-43.91694339 73.72518192 -43.14818165 72.44927743 -42.38110352 71.17236328 C-40.76164653 68.48124081 -39.13322446 65.7958556 -37.49804688 63.11425781 C-33.81894324 57.07042554 -30.22886467 50.97394544 -26.62762451 44.88354492 C-25.43991862 42.87908185 -24.2474637 40.87752859 -23.05322266 38.87695312 C-19.50176652 32.92549986 -15.96641217 26.96765217 -12.51823425 20.95559692 C-11.05382603 18.40314073 -9.57939338 15.85654086 -8.10452271 13.31011963 C-7.41490996 12.11217877 -6.73063158 10.91114979 -6.05197144 9.70697021 C-5.12209931 8.05753312 -4.17287953 6.41904749 -3.22265625 4.78125 C-2.43000366 3.3900293 -2.43000366 3.3900293 -1.62133789 1.97070312 C-1.08629639 1.32037109 -0.55125488 0.67003906 0 0 Z " fill="#2D3F75" transform="translate(580,451)"/>
<path d="M0 0 C2.32348633 0.07739258 2.32348633 0.07739258 5 1 C6.96362305 3.4909668 6.96362305 3.4909668 8.82421875 6.76171875 C9.51981134 7.95764065 10.21561763 9.15343827 10.91162109 10.34912109 C11.25948669 10.95995544 11.60735229 11.57078979 11.96575928 12.20013428 C13.53136093 14.9247154 15.18430346 17.59403378 16.83203125 20.26953125 C24.70682027 33.20147905 32.51514334 46.171352 40.25 59.1875 C40.65368805 59.86600006 41.0573761 60.54450012 41.47329712 61.24356079 C45.02103728 67.2092378 48.56572012 73.17797264 52.01171875 79.203125 C52.39030029 79.86344727 52.76888184 80.52376953 53.15893555 81.20410156 C54.62513746 84.33483633 54.55139416 86.63036904 54 90 C51.01749177 96.55406185 47.28693196 102.6140024 43.51858521 108.74157715 C41.62724611 111.81790626 39.7469397 114.90095626 37.8671875 117.984375 C37.4726387 118.63134338 37.0780899 119.27831177 36.67158508 119.94488525 C32.48616031 126.82141087 28.38576811 133.74770844 24.28887939 140.67721558 C21.19892935 145.89974324 18.09517436 151.11408378 14.99267578 156.3291626 C14.07894784 157.86711774 13.16823672 159.40686419 12.2578125 160.94677734 C10.87179077 163.28480956 9.47112174 165.61304169 8.0625 167.9375 C7.6919751 168.56946289 7.3214502 169.20142578 6.93969727 169.85253906 C5.4181828 172.32766101 4.50479416 173.80315652 1.74609375 174.87890625 C1.16988281 174.91886719 0.59367187 174.95882812 0 175 C-3.95352602 169.50363456 -7.31358529 163.74068509 -10.5625 157.8125 C-14.31716417 150.96672686 -18.19584282 144.21034852 -22.1875 137.5 C-27.18362238 129.09582719 -32.11538449 120.65680754 -37 112.1875 C-37.62285889 111.10855469 -38.24571777 110.02960938 -38.88745117 108.91796875 C-40.06177156 106.87927337 -41.22980443 104.83693953 -42.390625 102.79052734 C-43.4083837 101.02581527 -44.45702473 99.27825292 -45.546875 97.55712891 C-48.76032616 92.343169 -50.21265022 88.12986531 -49 82 C-47.90022299 79.01499144 -46.4037943 76.39820263 -44.75 73.6875 C-44.2974585 72.91100098 -43.84491699 72.13450195 -43.37866211 71.33447266 C-41.93905597 68.87718423 -40.47215332 66.43790159 -39 64 C-38.10986937 62.50438668 -37.22053397 61.00829974 -36.33203125 59.51171875 C-34.418669 56.30097014 -32.49023781 53.09975967 -30.5546875 49.90234375 C-27.76427011 45.28403153 -25.00611325 40.64734022 -22.2578125 36.00390625 C-21.841259 35.30044067 -21.42470551 34.5969751 -20.99552917 33.87219238 C-19.31669205 31.03650595 -17.63809343 28.20068525 -15.962677 25.36297607 C-2.4074354 2.4074354 -2.4074354 2.4074354 0 0 Z " fill="#04D2EB" transform="translate(370,569)"/>
<path d="M0 0 C0.82029694 -0.00137466 1.64059387 -0.00274933 2.48574829 -0.00416565 C3.3819841 -0.00057037 4.27821991 0.0030249 5.20161438 0.00672913 C6.62141602 0.00651009 6.62141602 0.00651009 8.06990051 0.00628662 C11.20277691 0.00698405 14.33559406 0.01476853 17.46846008 0.02259827 C19.63893603 0.02446305 21.8094124 0.02588667 23.97988892 0.02688599 C29.69602111 0.03070641 35.41212795 0.04053267 41.12825012 0.05158997 C46.95974891 0.06181427 52.79125179 0.0663858 58.62275696 0.07142639 C70.06742957 0.08215534 81.51208334 0.0992261 92.95674133 0.12025452 C94.08888245 3.80879211 94.08888245 3.80879211 92.89961243 6.61195374 C92.34869934 7.54023987 91.79778625 8.468526 91.23017883 9.42494202 C90.61739075 10.47141907 90.00460266 11.51789612 89.37324524 12.59608459 C88.69954895 13.71781067 88.02585266 14.83953674 87.33174133 15.99525452 C86.63579965 17.173876 85.94098864 18.35316579 85.24726868 19.53309631 C83.83380956 21.93239751 82.41335841 24.32731788 80.98603821 26.71839905 C79.20130967 29.71026712 77.42719527 32.70793289 75.65986633 35.71009827 C74.12210523 38.32201291 72.58199942 40.93232066 71.03242493 43.5372467 C68.21713369 48.2703745 65.432004 53.01871461 62.69120789 57.79528809 C61.16245026 60.45839727 59.6264012 63.11727263 58.09022522 65.77610779 C57.34152723 67.0767846 56.59637688 68.37951072 55.85499573 69.68437195 C54.81463459 71.51473095 53.76199593 73.33751494 52.70674133 75.15931702 C52.10346008 76.21328674 51.50017883 77.26725647 50.87861633 78.35316467 C48.00747777 82.48699145 44.55627075 85.1375576 39.95674133 87.12025452 C37.96528244 87.36635017 37.96528244 87.36635017 35.83119202 87.36076355 C34.61130585 87.36488754 34.61130585 87.36488754 33.36677551 87.36909485 C32.48348572 87.3619043 31.60019592 87.35471375 30.69013977 87.3473053 C29.28474945 87.34774338 29.28474945 87.34774338 27.85096741 87.34819031 C24.75592265 87.34679763 21.66111901 87.33123918 18.56611633 87.31556702 C16.41949088 87.31183667 14.27286373 87.3089898 12.12623596 87.30699158 C6.47748612 87.29935683 0.8288392 87.27970962 -4.81987 87.25758362 C-10.58442289 87.23712183 -16.34899242 87.22798914 -22.11357117 87.21791077 C-33.42351221 87.19646365 -44.73337688 87.16232954 -56.04325867 87.12025452 C-57.13261414 85.33143616 -57.13261414 85.33143616 -58.04325867 83.12025452 C-56.88951412 80.39350852 -55.68032148 78.08077154 -54.16825867 75.55775452 C-53.71990662 74.78109436 -53.27155457 74.0044342 -52.80961609 73.20423889 C-51.23928094 70.49833405 -49.64290707 67.8089278 -48.04325867 65.12025452 C-46.80733684 63.02795115 -45.57167079 60.93549668 -44.33622742 58.84291077 C-42.33081158 55.45185331 -40.32268137 52.06251106 -38.30400085 48.67933655 C-34.78416504 42.77669431 -31.29952607 36.85747526 -27.89091492 30.88978577 C-27.38679832 30.00853531 -27.38679832 30.00853531 -26.87249756 29.10948181 C-25.27164281 26.30909877 -23.67703649 23.50543377 -22.09135437 20.69642639 C-10.27920257 -0.0132978 -10.27920257 -0.0132978 0 0 Z " fill="#2D3F75" transform="translate(669.0432586669922,564.8797454833984)"/>
<path d="M0 0 C4.18025849 1.50920177 5.49425456 3.99061185 7.65234375 7.765625 C8.15673981 8.63701866 8.15673981 8.63701866 8.67132568 9.52601624 C9.76984055 11.42856344 10.85349683 13.33915388 11.9375 15.25 C12.70109889 16.57771812 13.46583978 17.90478007 14.23168945 19.23120117 C15.77257508 21.90159429 17.30885643 24.57455049 18.84179688 27.24951172 C21.74113596 32.29971051 24.71178235 37.30703752 27.6875 42.3125 C32.88549678 51.0869801 38.03194372 59.89097324 43.15698242 68.70825195 C43.70201416 69.64499756 44.2470459 70.58174316 44.80859375 71.546875 C45.59532471 72.9071582 45.59532471 72.9071582 46.39794922 74.29492188 C47.4927797 76.14355365 48.62124793 77.9725661 49.77783203 79.78320312 C50.61677002 81.10481445 50.61677002 81.10481445 51.47265625 82.453125 C51.9819165 83.23333008 52.49117676 84.01353516 53.01586914 84.81738281 C54 87 54 87 53.72045898 89.22167969 C53 91 53 91 52 92 C48.83387337 92.09536242 45.68959372 92.12550636 42.52319336 92.11352539 C41.03067802 92.11374443 41.03067802 92.11374443 39.50801086 92.1139679 C36.20193338 92.11326831 32.89591146 92.10547379 29.58984375 92.09765625 C27.30440807 92.09579223 25.01897199 92.09436825 22.73353577 92.09336853 C16.70501613 92.08954207 10.67652041 92.0797107 4.64801025 92.06866455 C-1.49832841 92.05845317 -7.64467093 92.0538715 -13.79101562 92.04882812 C-25.86068762 92.03808854 -37.93034182 92.0210106 -50 92 C-51.06648254 90.16600037 -51.06648254 90.16600037 -52 88 C-50.9362793 85.34399414 -50.9362793 85.34399414 -49.07421875 82.28515625 C-48.57356148 81.44678474 -48.57356148 81.44678474 -48.06278992 80.59147644 C-46.95227436 78.73925163 -45.81993698 76.90138922 -44.6875 75.0625 C-43.90342975 73.76305704 -43.12106517 72.46258351 -42.34033203 71.16113281 C-40.71337417 68.45189753 -39.07909592 65.74728183 -37.43994141 63.04541016 C-34.03572051 57.41958989 -30.73334725 51.73487346 -27.42526245 46.05221558 C-19.8781637 33.10164411 -12.18827247 20.23810625 -4.44775391 7.40234375 C-2.96193125 4.93683027 -1.48030686 2.46882839 0 0 Z " fill="#253577" transform="translate(439,210)"/>
<path d="M0 0 C4.07375511 1.49886592 5.33213486 3.75222582 7.3984375 7.4765625 C8.35375366 9.17643311 8.35375366 9.17643311 9.32836914 10.91064453 C10.01059699 12.14875334 10.69280682 13.38687209 11.375 14.625 C12.08913544 15.90159465 12.80456564 17.17746581 13.52124023 18.45263672 C14.61832993 20.40487132 15.7146969 22.3574665 16.80717468 24.31228638 C20.15105873 30.29383156 23.59309095 36.21542994 27.0625 42.125 C30.77307155 48.46170417 34.47127293 54.805064 38.13671875 61.16796875 C38.48134659 61.76617432 38.82597443 62.36437988 39.18104553 62.98071289 C40.85684362 65.89063503 42.53089359 68.80154484 44.20336914 71.71337891 C44.80141357 72.75284668 45.39945801 73.79231445 46.015625 74.86328125 C46.80888184 76.24447144 46.80888184 76.24447144 47.61816406 77.65356445 C48.68824811 79.47062767 49.83027964 81.24541946 51 83 C50.67 84.65 50.34 86.3 50 88 C17.33 88 -15.34 88 -49 88 C-50.14271148 82.28644258 -49.70809283 81.68713434 -46.8359375 76.94140625 C-46.32106529 76.07658379 -46.32106529 76.07658379 -45.79579163 75.19429016 C-44.66894424 73.30859348 -43.52216566 71.4358923 -42.375 69.5625 C-41.58458644 68.24776767 -40.79561815 66.93216542 -40.00805664 65.61572266 C-38.42237612 62.9691665 -36.82949648 60.32718134 -35.22998047 57.68896484 C-32.77471947 53.63534131 -30.36474428 49.55582295 -27.96313477 45.47021484 C-26.42914227 42.86078289 -24.88733849 40.25610905 -23.34375 37.65234375 C-21.17995886 33.99962682 -19.02474228 30.34202612 -16.87583923 26.68054199 C-15.42239049 24.20525201 -13.9657956 21.73182102 -12.50881958 19.25860596 C-11.80274456 18.05836894 -11.09801976 16.85733643 -10.39474487 15.65545654 C-9.41131012 13.97521418 -8.42254164 12.29809714 -7.43359375 10.62109375 C-6.86697021 9.6561499 -6.30034668 8.69120605 -5.71655273 7.69702148 C-3.97743042 4.96453901 -2.06863685 2.48954915 0 0 Z " fill="#2C3E74" transform="translate(306,677)"/>
<path d="M0 0 C1.8840332 0.16699219 1.8840332 0.16699219 4 1 C5.46948242 2.85644531 5.46948242 2.85644531 6.85546875 5.328125 C7.65259277 6.72417969 7.65259277 6.72417969 8.46582031 8.1484375 C9.03397461 9.17195312 9.60212891 10.19546875 10.1875 11.25 C11.43547166 13.44312176 12.68420366 15.63581099 13.93359375 17.828125 C14.59891868 19.00448768 15.26411814 20.18092132 15.92919922 21.35742188 C19.11593592 26.97949072 22.38443775 32.55389987 25.65356445 38.12832642 C26.74515265 39.99172532 27.83276765 41.85740017 28.91992188 43.72338867 C31.97898439 48.96070726 35.06205346 54.16869729 38.37109375 59.25390625 C38.85545898 59.99962891 39.33982422 60.74535156 39.83886719 61.51367188 C40.70598605 62.83098931 41.58712775 64.13923892 42.48535156 65.43554688 C43.60546875 67.12890625 43.60546875 67.12890625 45 70 C44.0871582 72.17944336 44.0871582 72.17944336 43 74 C32.32580302 74.02312328 21.65161194 74.04091501 10.97739506 74.05181217 C6.02146078 74.05704103 1.06554358 74.06413874 -3.89038086 74.07543945 C-8.66898836 74.08626822 -13.44757938 74.09227681 -18.2261982 74.09487724 C-20.05353619 74.09673151 -21.88087324 74.10035216 -23.70820427 74.10573006 C-26.25853329 74.11294036 -28.80879337 74.11399095 -31.35913086 74.11352539 C-32.12229614 74.11712067 -32.88546143 74.12071594 -33.67175293 74.12442017 C-38.88594784 74.11405216 -38.88594784 74.11405216 -40 73 C-39.95900754 65.63160583 -35.93903747 60.09525385 -32.25 53.9375 C-31.56839185 52.78128425 -30.88782296 51.62445527 -30.20825195 50.46704102 C-28.82132758 48.10949634 -27.42779129 45.75607744 -26.02783203 43.40625 C-24.16437232 40.27610433 -22.31199488 37.13978866 -20.46484375 34 C-18.325401 30.36596417 -16.17977847 26.73573038 -14.02734375 23.109375 C-12.00964924 19.70883892 -10.00181953 16.3028211 -8.00390625 12.890625 C-7.53766846 12.09470947 -7.07143066 11.29879395 -6.59106445 10.47875977 C-5.71991317 8.99036458 -4.84989354 7.50130626 -3.98120117 6.01147461 C-1.11024864 1.11024864 -1.11024864 1.11024864 0 0 Z " fill="#2C3E74" transform="translate(781,578)"/>
<path d="M0 0 C3.29078593 2.79716804 5.06305458 6.19528578 7 10 C6.67 10.66 6.34 11.32 6 12 C0 4.8 0 4.8 0 0 Z " fill="#4A0FF4" transform="translate(528,358)"/>
<path d="M0 0 C0.33 1.32 0.66 2.64 1 4 C0.01 4.33 -0.98 4.66 -2 5 C-3.21869929 7.50447516 -3.21869929 7.50447516 -4 10 C-4.33 9.34 -4.66 8.68 -5 8 C-4.00390625 6.0546875 -4.00390625 6.0546875 -2.5625 3.875 C-2.08941406 3.15054688 -1.61632812 2.42609375 -1.12890625 1.6796875 C-0.75636719 1.12539063 -0.38382812 0.57109375 0 0 Z " fill="#182662" transform="translate(280,720)"/>
<path d="M0 0 C0.33 1.32 0.66 2.64 1 4 C0.01 4.33 -0.98 4.66 -2 5 C-3.21869929 7.50447516 -3.21869929 7.50447516 -4 10 C-4.33 9.34 -4.66 8.68 -5 8 C-4.00390625 6.0546875 -4.00390625 6.0546875 -2.5625 3.875 C-2.08941406 3.15054688 -1.61632812 2.42609375 -1.12890625 1.6796875 C-0.75636719 1.12539063 -0.38382813 0.57109375 0 0 Z " fill="#1C2862" transform="translate(635,607)"/>
<path d="M0 0 C0.33 0.66 0.66 1.32 1 2 C0.0625 4.625 0.0625 4.625 -1 7 C-1.66 7 -2.32 7 -3 7 C-3.33 7.99 -3.66 8.98 -4 10 C-4.33 9.34 -4.66 8.68 -5 8 C-4.00390625 6.0546875 -4.00390625 6.0546875 -2.5625 3.875 C-2.08941406 3.15054687 -1.61632812 2.42609375 -1.12890625 1.6796875 C-0.75636719 1.12539063 -0.38382813 0.57109375 0 0 Z " fill="#192761" transform="translate(578,455)"/>
<path d="M0 0 C0.66 0 1.32 0 2 0 C5.22265625 5.2734375 5.22265625 5.2734375 6 7 C5.67 7.66 5.34 8.32 5 9 C4.525625 8.505 4.05125 8.01 3.5625 7.5 C2.24076302 5.88457803 2.24076302 5.88457803 1 6 C0.67 4.02 0.34 2.04 0 0 Z " fill="#4C0EF3" transform="translate(539,378)"/>
</svg>
